{"title":"Gangster.Squad.2013 WEBRip XViD juggs","uid":8332140,"size":743723577,"categoryP":"video","categoryS":"movies","magnet":"?xt=urn:btih:4e380e7c8000fdb229ff66ff7196c1513ac7ca29&amp;dn=Gangster.Squad.2013+WEBRip+XViD+juggs&amp;tr=udp%3A%2F%2Ftracker.openbittorrent.com%3A80&amp;tr=udp%3A%2F%2Fopen.demonii.com%3A1337&amp;tr=udp%3A%2F%2Ftracker.coppersurfer.tk%3A6969&amp;tr=udp%3A%2F%2Fexodus.desync.com%3A6969","seeders":0,"leechers":1,"uploader":"Gh0stNet","files":3,"time":1364908005,"description":"Source : WEB DL HDClub (Thanks)\n\nwww.imdb.com/title/tt1321870\n\nFormat                                   : AVI\nFormat/Info                              : Audio Video Interleave\nFile size                                : 703 MiB\nDuration                                 : 1h 52mn\nOverall bit rate                         : 871 Kbps\nWriting library                          : VirtualDub build 32842/release\n\nVideo\nID                                       : 0\nFormat                                   : MPEG-4 Visual\nFormat profile                           : Advanced Simple@L5\nFormat settings, BVOP                    : 4\nFormat settings, QPel                    : No\nFormat settings, GMC                     : No warppoints\nFormat settings, Matrix                  : Default (H.263)\nMuxing mode                              : Packed bitstream\nCodec ID                                 : XVID\nCodec ID/Hint                            : XviD\nDuration                                 : 1h 52mn\nBit rate                                 : 733 Kbps\nWidth                                    : 640 pixels\nHeight                                   : 272 pixels\nDisplay aspect ratio                     : 2.35:1\nFrame rate                               : 23.976 fps\nColor space                              : YUV\nChroma subsampling                       : 4:2:0\nBit depth                                : 8 bits\nScan type                                : Progressive\nCompression mode                         : Lossy\nBits/(Pixel*Frame)                       : 0.176\nStream size                              : 592 MiB (84%)\nWriting library                          : XviD 1.2.0.dev47 (UTC 2006-11-01)\n\nAudio\nID                                       : 1\nFormat                                   : MPEG Audio\nFormat version                           : Version 1\nFormat profile                           : Layer 3\nMode                                     : Joint stereo\nMode extension                           : MS Stereo\nCodec ID                                 : 55\nCodec ID/Hint                            : MP3\nDuration                                 : 1h 52mn\nBit rate mode                            : Constant\nBit rate                                 : 128 Kbps\nChannel(s)                               : 2 channels\nSampling rate                            : 44.1 KHz\nCompression mode                         : Lossy\nStream size                              : 103 MiB (15%)\nAlignment                                : Split accross interleaves\nInterleave, duration                     : 42 ms (1.00 video frame)\nInterleave, preload duration             : 500 ms\nWriting library                          : LAME3.97 (beta)\n\nScreens: &lt;a href=&quot;\nhttp://i.imgur.com/DbZaHFF.png&quot; rel=&quot;nofollow&quot; target=&quot;_NEW&quot;&gt;\nhttp://i.imgur.com/DbZaHFF.png&lt;/a&gt; &lt;a href=&quot;\nhttp://i.imgur.com/LPF9vqX.png&quot; rel=&quot;nofollow&quot; target=&quot;_NEW&quot;&gt;\nhttp://i.imgur.com/LPF9vqX.png&lt;/a&gt; &lt;a href=&quot;\nhttp://i.imgur.com/lJSuoaD.png&quot; rel=&quot;nofollow&quot; target=&quot;_NEW&quot;&gt;\nhttp://i.imgur.com/lJSuoaD.png&lt;/a&gt;","torrent":{"xt":"urn:btih:4e380e7c8000fdb229ff66ff7196c1513ac7ca29","amp;dn":"Gangster.Squad.2013+WEBRip+XViD+juggs","amp;tr":["udp%3A%2F%2Ftracker.openbittorrent.com%3A80","udp%3A%2F%2Fopen.demonii.com%3A1337","udp%3A%2F%2Ftracker.coppersurfer.tk%3A6969","udp%3A%2F%2Fexodus.desync.com%3A6969"],"infoHash":"4e380e7c8000fdb229ff66ff7196c1513ac7ca29","infoHashBuffer":{"type":"Buffer","data":[78,56,14,124,128,0,253,178,41,255,102,255,113,150,193,81,58,199,202,41]},"announce":[],"urlList":[]}}